<svg width="100" height="100" viewBox="0 0 100 100" fill="none" xmlns="http://www.w3.org/2000/svg">
<g clip-path="url(#clip0_200_396)">
<path d="M0 48C0 31.1984 0 22.7976 3.2698 16.3803C6.14601 10.7354 10.7354 6.14601 16.3803 3.2698C22.7976 0 31.1984 0 48 0H52C68.8016 0 77.2024 0 83.6197 3.2698C89.2646 6.14601 93.854 10.7354 96.7302 16.3803C100 22.7976 100 31.1984 100 48V52C100 68.8016 100 77.2024 96.7302 83.6197C93.854 89.2646 89.2646 93.854 83.6197 96.7302C77.2024 100 68.8016 100 52 100H48C31.1984 100 22.7976 100 16.3803 96.7302C10.7354 93.854 6.14601 89.2646 3.2698 83.6197C0 77.2024 0 68.8016 0 52V48Z" fill="white"/>
<path fill-rule="evenodd" clip-rule="evenodd" d="M56.8 16H43.2C36.9074 16 32.6691 16.0062 29.4019 16.2732C26.2281 16.5325 24.6814 16.9974 23.6441 17.5259C21.0099 18.8681 18.8681 21.0099 17.5259 23.6441C16.9974 24.6814 16.5325 26.2281 16.2732 29.4019C16.0062 32.6691 16 36.9074 16 43.2V56.8C16 63.0926 16.0062 67.3309 16.2732 70.5981C16.5325 73.7719 16.9974 75.3186 17.5259 76.3559C18.8681 78.9901 21.0099 81.1319 23.6441 82.4741C24.6814 83.0026 26.2281 83.4675 29.4019 83.7268C32.6691 83.9938 36.9074 84 43.2 84H56.8C63.0926 84 67.3309 83.9938 70.5981 83.7268C73.7719 83.4675 75.3186 83.0026 76.3559 82.4741C78.9901 81.1319 81.1319 78.9901 82.4741 76.3559C83.0026 75.3186 83.4675 73.7719 83.7268 70.5981C83.9938 67.3309 84 63.0926 84 56.8V43.2C84 36.9074 83.9938 32.6691 83.7268 29.4019C83.4675 26.2281 83.0026 24.6814 82.4741 23.6441C81.1319 21.0099 78.9901 18.8681 76.3559 17.5259C75.3186 16.9974 73.7719 16.5325 70.5981 16.2732C67.3309 16.0062 63.0926 16 56.8 16ZM10.3979 20.0122C8 24.7183 8 30.8788 8 43.2V56.8C8 69.1212 8 75.2817 10.3979 79.9878C12.5071 84.1274 15.8726 87.4929 20.0122 89.6021C24.7183 92 30.8788 92 43.2 92H56.8C69.1212 92 75.2817 92 79.9878 89.6021C84.1274 87.4929 87.4929 84.1274 89.6021 79.9878C92 75.2817 92 69.1212 92 56.8V43.2C92 30.8788 92 24.7183 89.6021 20.0122C87.4929 15.8726 84.1274 12.5071 79.9878 10.3979C75.2817 8 69.1212 8 56.8 8H43.2C30.8788 8 24.7183 8 20.0122 10.3979C15.8726 12.5071 12.5071 15.8726 10.3979 20.0122Z" fill="black"/>
<path d="M55 30H45V45L30 45V55H45V70H55V55H70V45L55 45V30Z" fill="black"/>
</g>
<defs>
<clipPath id="clip0_200_396">
<rect width="100" height="100" fill="white"/>
</clipPath>
</defs>
</svg>
