<svg viewBox="0 0 100 100" fill="none" xmlns="http://www.w3.org/2000/svg">
<g clip-path="url(#clip0_189_284)">
<path d="M28 70V31.7143H39.4761L39.9012 38.3571H40.5387C41.7666 36.0238 43.6793 34.2143 46.2768 32.9286C48.8742 31.6429 51.6134 31 54.4942 31C56.95 31 59.1933 31.3095 61.2241 31.9286C63.2548 32.5476 64.9786 33.5476 66.3954 34.9286C67.8594 36.3095 68.9929 38.1667 69.7957 40.5C70.5986 42.7857 71 45.619 71 49V70H59.0988V51.0714C59.0988 48.7381 58.8155 46.7619 58.2488 45.1429C57.682 43.5238 56.7611 42.2857 55.486 41.4286C54.2109 40.5714 52.5107 40.1429 50.3855 40.1429C48.2603 40.1429 46.4185 40.619 44.86 41.5714C43.3015 42.4762 42.0736 43.7381 41.1763 45.3571C40.3262 46.9762 39.9012 48.8333 39.9012 50.9286V70H28Z" fill="black"/>
<path fill-rule="evenodd" clip-rule="evenodd" d="M100 0H0V100H100V0ZM11.608 16.7372C10 19.6622 10 23.5481 10 31.32V68.68C10 76.4519 10 80.3378 11.608 83.2628C12.7965 85.4246 14.5754 87.2036 16.7372 88.392C19.6622 90 23.5481 90 31.32 90H68.68C76.4519 90 80.3378 90 83.2628 88.392C85.4246 87.2036 87.2036 85.4246 88.392 83.2628C90 80.3378 90 76.4519 90 68.68V31.32C90 23.5481 90 19.6622 88.392 16.7372C87.2036 14.5754 85.4246 12.7965 83.2628 11.608C80.3378 10 76.4519 10 68.68 10H31.32C23.5481 10 19.6622 10 16.7372 11.608C14.5754 12.7965 12.7965 14.5754 11.608 16.7372Z" fill="black"/>
</g>
<defs>
<clipPath id="clip0_189_284">
<rect width="100" height="100" rx="23" fill="white"/>
</clipPath>
</defs>
</svg>
